<svg width="400" height="40" viewBox="0 0 400 40" fill="none" xmlns="http://www.w3.org/2000/svg">
<path d="M40 20C40 31.0451 31.0451 40 20 40C8.95493 40 0 31.0451 0 20C0 8.95493 8.95493 0 20 0C31.0474 0 40 8.95493 40 20Z" fill="white"/>
<path d="M9.86716 20.672L9.95343 20.5364L15.1562 12.3973C15.2323 12.2781 15.411 12.2904 15.4686 12.4199C16.3377 14.3679 17.0878 16.7905 16.7364 18.2987C16.5864 18.9192 16.1754 19.7597 15.7131 20.5364C15.6535 20.6494 15.5877 20.7604 15.5179 20.8672C15.485 20.9165 15.4295 20.9453 15.3699 20.9453H10.0192C9.87534 20.9453 9.79112 20.7892 9.86716 20.672Z" fill="#4506CB"/>
<path d="M33.0578 22.1844V23.4728C33.0578 23.5467 33.0126 23.6125 32.9468 23.6412C32.5441 23.8139 31.1653 24.4468 30.592 25.244C29.129 27.2803 28.0111 30.192 25.5125 30.192H15.0884C11.3939 30.192 8.39999 27.1879 8.39999 23.481V23.3618C8.39999 23.2632 8.48013 23.183 8.57875 23.183H14.3898C14.5048 23.183 14.5891 23.2899 14.5788 23.4029C14.5377 23.781 14.6076 24.1673 14.7863 24.5187C15.1315 25.2193 15.8467 25.657 16.6192 25.657H19.496V23.4111H16.6521C16.5062 23.4111 16.4199 23.2426 16.5042 23.1234C16.535 23.0762 16.5699 23.0268 16.6069 22.9714C16.8761 22.5892 17.2603 21.9953 17.6425 21.3193C17.9035 20.8632 18.1563 20.3761 18.3597 19.8871C18.4008 19.7988 18.4336 19.7084 18.4665 19.62C18.522 19.4638 18.5795 19.3179 18.6206 19.172C18.6617 19.0488 18.6946 18.9193 18.7275 18.798C18.8241 18.383 18.8651 17.9432 18.8651 17.4871C18.8651 17.3083 18.8569 17.1213 18.8405 16.9425C18.8323 16.7473 18.8076 16.5521 18.783 16.3569C18.7665 16.1843 18.7357 16.0138 18.7028 15.835C18.6617 15.574 18.6042 15.3152 18.5384 15.0542L18.5159 14.9556C18.4665 14.7768 18.4254 14.6062 18.3679 14.4275C18.2055 13.8665 18.0186 13.3199 17.8213 12.8083C17.7494 12.6048 17.6672 12.4096 17.585 12.2144C17.4638 11.9206 17.3405 11.6535 17.2275 11.4007C17.1699 11.2856 17.1206 11.1808 17.0713 11.074C17.0158 10.9528 16.9583 10.8316 16.9007 10.7164C16.8597 10.6281 16.8124 10.5459 16.7795 10.4637L16.4282 9.8144C16.3788 9.72604 16.461 9.62124 16.5576 9.64796L18.7563 10.2439H18.7624C18.7665 10.2439 18.7686 10.2459 18.7707 10.2459L19.0603 10.326L19.3789 10.4164L19.496 10.4493V9.14249C19.496 8.51164 20.0015 8 20.6261 8C20.9385 8 21.222 8.12738 21.4255 8.33493C21.6289 8.54249 21.7563 8.82604 21.7563 9.14249V11.0822L21.9905 11.148C22.009 11.1541 22.0275 11.1624 22.0439 11.1747C22.1015 11.2178 22.1837 11.2816 22.2885 11.3596C22.3707 11.4254 22.459 11.5055 22.5659 11.5877C22.7775 11.7583 23.0303 11.9781 23.3077 12.2308C23.3816 12.2946 23.4535 12.3603 23.5193 12.4261C23.8768 12.7589 24.2775 13.1494 24.6597 13.5809C24.7666 13.7021 24.8714 13.8254 24.9782 13.9548C25.0851 14.0864 25.1981 14.2158 25.2967 14.3453C25.4262 14.5179 25.5659 14.6966 25.6871 14.8836C25.7447 14.972 25.8104 15.0624 25.8659 15.1508C26.0221 15.3871 26.1598 15.6316 26.2913 15.8761C26.3467 15.9891 26.4043 16.1124 26.4536 16.2336C26.5995 16.5604 26.7146 16.8932 26.7885 17.2261C26.8111 17.298 26.8275 17.3761 26.8358 17.446V17.4624C26.8604 17.5611 26.8687 17.6659 26.8769 17.7727C26.9098 18.1138 26.8933 18.4549 26.8193 18.798C26.7885 18.944 26.7474 19.0816 26.6981 19.2275C26.6488 19.3672 26.5995 19.5131 26.5358 19.6508C26.4125 19.9364 26.2666 20.222 26.094 20.4892C26.0385 20.5878 25.9727 20.6926 25.907 20.7912C25.8351 20.896 25.7611 20.9947 25.6954 21.0912C25.605 21.2145 25.5084 21.344 25.4097 21.459C25.3214 21.5803 25.231 21.7015 25.1323 21.8084C24.9947 21.9707 24.8631 22.1248 24.7255 22.2728C24.6433 22.3693 24.5549 22.468 24.4645 22.5563C24.3762 22.6549 24.2858 22.7433 24.2035 22.8255C24.0659 22.9632 23.9508 23.07 23.8543 23.1584L23.6282 23.3659C23.5953 23.3947 23.5522 23.4111 23.507 23.4111H21.7563V25.657H23.9591C24.4522 25.657 24.9207 25.4824 25.2988 25.1618C25.4282 25.0488 25.9933 24.5597 26.6611 23.8221C26.6837 23.7974 26.7125 23.7789 26.7454 23.7707L32.8297 22.0118C32.9427 21.9789 33.0578 22.0652 33.0578 22.1844Z" fill="#4506CB"/>
<g clip-path="url(#clip0_427_255)">
<path fill-rule="evenodd" clip-rule="evenodd" d="M92.0004 0.833313C87.2525 0.835776 82.6602 2.51741 79.0448 5.57752C75.4293 8.63763 73.0265 12.8767 72.2659 17.5366C71.5053 22.1966 72.4365 26.9737 74.8931 31.0136C77.3497 35.0535 81.1714 38.0929 85.6749 39.5883C86.6684 39.7727 87.0427 39.1569 87.0427 38.6333C87.0427 38.1097 87.0228 36.5917 87.0162 34.932C81.4523 36.1339 80.2766 32.5841 80.2766 32.5841C79.3692 30.279 78.0577 29.6731 78.0577 29.6731C76.2429 28.4416 78.1935 28.4646 78.1935 28.4646C80.2038 28.6062 81.2603 30.5161 81.2603 30.5161C83.042 33.5556 85.9398 32.6763 87.0791 32.1626C87.2579 30.8751 87.7779 29.9991 88.3508 29.5019C83.9064 29.0014 79.2367 27.2956 79.2367 19.6757C79.2092 17.6995 79.9467 15.7884 81.2967 14.3378C81.0914 13.8373 80.4058 11.8154 81.4921 9.06903C81.4921 9.06903 83.1712 8.53557 86.993 11.1074C90.2711 10.216 93.7298 10.216 97.0079 11.1074C100.826 8.53557 102.502 9.06903 102.502 9.06903C103.592 11.8088 102.906 13.8307 102.701 14.3378C104.055 15.7886 104.794 17.7031 104.764 19.6823C104.764 27.3187 100.085 29.0014 95.6335 29.492C96.3488 30.1111 96.988 31.3196 96.988 33.1769C96.988 35.8376 96.9648 37.978 96.9648 38.6333C96.9648 39.1635 97.3258 39.7826 98.3392 39.5883C102.843 38.0927 106.665 35.0528 109.122 31.0122C111.578 26.9716 112.509 22.1938 111.748 17.5334C110.986 12.873 108.582 8.6339 104.966 5.57432C101.349 2.51474 96.7556 0.834215 92.0071 0.833313H92.0004Z" fill="white"/>
<path d="M79.5741 29.3867C79.531 29.4855 79.372 29.5151 79.2429 29.4459C79.1137 29.3768 79.0177 29.2484 79.0641 29.1463C79.1104 29.0442 79.2661 29.0179 79.3952 29.087C79.5244 29.1562 79.6237 29.2879 79.5741 29.3867Z" fill="white"/>
<path d="M80.3855 30.2856C80.3169 30.32 80.2384 30.3296 80.1635 30.3128C80.0886 30.2959 80.0219 30.2538 79.9748 30.1934C79.8457 30.0551 79.8192 29.8641 79.9185 29.7785C80.0179 29.6929 80.1967 29.7324 80.3259 29.8707C80.455 30.009 80.4848 30.2 80.3855 30.2856Z" fill="white"/>
<path d="M81.1737 31.4283C81.0512 31.5139 80.8425 31.4283 80.7266 31.2571C80.6946 31.2264 80.6691 31.1895 80.6517 31.1488C80.6343 31.1081 80.6253 31.0643 80.6253 31.02C80.6253 30.9757 80.6343 30.9319 80.6517 30.8912C80.6691 30.8504 80.6946 30.8136 80.7266 30.7829C80.8492 30.7006 81.0578 30.7829 81.1737 30.9508C81.2897 31.1188 81.293 31.3427 81.1737 31.4283Z" fill="white"/>
<path d="M82.2434 32.5347C82.1341 32.6566 81.9122 32.6237 81.7301 32.459C81.5479 32.2944 81.5049 32.0704 81.6142 31.9519C81.7235 31.8333 81.9454 31.8663 82.1341 32.0276C82.3229 32.189 82.3593 32.4162 82.2434 32.5347Z" fill="white"/>
<path d="M83.7436 33.1802C83.6939 33.3349 83.4687 33.4041 83.2435 33.3382C83.0183 33.2724 82.8693 33.0879 82.9124 32.9299C82.9554 32.7718 83.1839 32.6994 83.4124 32.7718C83.641 32.8443 83.7867 33.0188 83.7436 33.1802Z" fill="white"/>
<path d="M85.3797 33.2921C85.3797 33.4535 85.1943 33.5918 84.9558 33.5951C84.7174 33.5983 84.522 33.4666 84.522 33.3053C84.522 33.1439 84.7074 33.0056 84.9459 33.0023C85.1843 32.999 85.3797 33.1275 85.3797 33.2921Z" fill="white"/>
<path d="M86.9032 33.0385C86.933 33.1999 86.7674 33.3678 86.5289 33.4074C86.2905 33.4469 86.0818 33.3514 86.052 33.1933C86.0222 33.0353 86.1944 32.864 86.4263 32.8212C86.6581 32.7784 86.8734 32.8772 86.9032 33.0385Z" fill="white"/>
</g>
<path fill-rule="evenodd" clip-rule="evenodd" d="M184 20C184 31.0457 175.046 40 164 40C152.954 40 144 31.0457 144 20C144 8.95431 152.954 0 164 0C175.046 0 184 8.95431 184 20ZM164.717 14.7649C162.771 15.574 158.884 17.2487 153.053 19.7889C152.106 20.1654 151.61 20.5337 151.565 20.8938C151.489 21.5025 152.251 21.7422 153.289 22.0685C153.43 22.1129 153.577 22.1589 153.727 22.2077C154.748 22.5396 156.121 22.928 156.835 22.9434C157.483 22.9574 158.206 22.6903 159.004 22.1422C164.452 18.465 167.264 16.6063 167.441 16.5663C167.565 16.538 167.738 16.5025 167.855 16.6064C167.972 16.7104 167.96 16.9072 167.948 16.96C167.872 17.2819 164.88 20.0635 163.332 21.503C162.849 21.9517 162.507 22.27 162.437 22.3427C162.28 22.5056 162.12 22.6596 161.967 22.8077C161.018 23.7222 160.307 24.408 162.006 25.528C162.823 26.0662 163.476 26.5112 164.128 26.9552C164.84 27.4401 165.55 27.9238 166.469 28.5261C166.703 28.6796 166.927 28.839 167.145 28.9942C167.973 29.585 168.718 30.1157 169.638 30.0311C170.172 29.9819 170.724 29.4794 171.004 27.9806C171.667 24.4386 172.969 16.7641 173.27 13.6016C173.297 13.3246 173.264 12.97 173.237 12.8143C173.21 12.6586 173.155 12.4368 172.952 12.2727C172.713 12.0782 172.343 12.0372 172.177 12.0401C171.425 12.0534 170.271 12.4547 164.717 14.7649Z" fill="white"/>
<g clip-path="url(#clip1_427_255)">
<path d="M228.584 36.25C243.674 36.25 251.93 23.7446 251.93 12.9032C251.93 12.5516 251.923 12.1922 251.907 11.8407C253.513 10.6792 254.899 9.24048 256 7.59222C254.504 8.25773 252.916 8.69236 251.29 8.88129C253.002 7.85491 254.284 6.24251 254.898 4.34301C253.288 5.29766 251.526 5.97108 249.689 6.33441C248.451 5.01933 246.815 4.14859 245.033 3.85681C243.251 3.56504 241.422 3.86848 239.83 4.72022C238.237 5.57197 236.97 6.92457 236.223 8.56891C235.476 10.2133 235.292 12.0578 235.699 13.8172C232.437 13.6535 229.247 12.8062 226.333 11.3302C223.42 9.85422 220.849 7.78246 218.788 5.24926C217.741 7.05547 217.42 9.1928 217.892 11.2269C218.363 13.261 219.592 15.0391 221.327 16.2C220.024 16.1587 218.75 15.8079 217.609 15.1766V15.2782C217.608 17.1736 218.263 19.011 219.464 20.478C220.664 21.945 222.336 22.951 224.194 23.325C222.987 23.6553 221.72 23.7034 220.491 23.4657C221.016 25.0958 222.036 26.5215 223.41 27.5439C224.783 28.5664 226.442 29.1344 228.154 29.1688C225.247 31.4519 221.657 32.6903 217.961 32.6844C217.305 32.6834 216.651 32.6432 216 32.5641C219.755 34.973 224.123 36.2524 228.584 36.25Z" fill="white"/>
</g>
<path d="M308 3.60156C313.344 3.60156 313.977 3.625 316.078 3.71875C318.031 3.80469 319.086 4.13281 319.789 4.40625C320.719 4.76563 321.391 5.20313 322.086 5.89844C322.789 6.60156 323.219 7.26563 323.578 8.19531C323.852 8.89844 324.18 9.96094 324.266 11.9062C324.359 14.0156 324.383 14.6484 324.383 19.9844C324.383 25.3281 324.359 25.9609 324.266 28.0625C324.18 30.0156 323.852 31.0703 323.578 31.7734C323.219 32.7031 322.781 33.375 322.086 34.0703C321.383 34.7734 320.719 35.2031 319.789 35.5625C319.086 35.8359 318.023 36.1641 316.078 36.25C313.969 36.3438 313.336 36.3672 308 36.3672C302.656 36.3672 302.023 36.3438 299.922 36.25C297.969 36.1641 296.914 35.8359 296.211 35.5625C295.281 35.2031 294.609 34.7656 293.914 34.0703C293.211 33.3672 292.781 32.7031 292.422 31.7734C292.148 31.0703 291.82 30.0078 291.734 28.0625C291.641 25.9531 291.617 25.3203 291.617 19.9844C291.617 14.6406 291.641 14.0078 291.734 11.9062C291.82 9.95312 292.148 8.89844 292.422 8.19531C292.781 7.26563 293.219 6.59375 293.914 5.89844C294.617 5.19531 295.281 4.76563 296.211 4.40625C296.914 4.13281 297.977 3.80469 299.922 3.71875C302.023 3.625 302.656 3.60156 308 3.60156ZM308 0C302.57 0 301.891 0.0234375 299.758 0.117188C297.633 0.210938 296.172 0.554687 294.906 1.04688C293.586 1.5625 292.469 2.24219 291.359 3.35938C290.242 4.46875 289.563 5.58594 289.047 6.89844C288.555 8.17188 288.211 9.625 288.117 11.75C288.023 13.8906 288 14.5703 288 20C288 25.4297 288.023 26.1094 288.117 28.2422C288.211 30.3672 288.555 31.8281 289.047 33.0938C289.563 34.4141 290.242 35.5312 291.359 36.6406C292.469 37.75 293.586 38.4375 294.898 38.9453C296.172 39.4375 297.625 39.7812 299.75 39.875C301.883 39.9688 302.563 39.9922 307.992 39.9922C313.422 39.9922 314.102 39.9688 316.234 39.875C318.359 39.7812 319.82 39.4375 321.086 38.9453C322.398 38.4375 323.516 37.75 324.625 36.6406C325.734 35.5312 326.422 34.4141 326.93 33.1016C327.422 31.8281 327.766 30.375 327.859 28.25C327.953 26.1172 327.977 25.4375 327.977 20.0078C327.977 14.5781 327.953 13.8984 327.859 11.7656C327.766 9.64063 327.422 8.17969 326.93 6.91406C326.438 5.58594 325.758 4.46875 324.641 3.35938C323.531 2.25 322.414 1.5625 321.102 1.05469C319.828 0.5625 318.375 0.21875 316.25 0.125C314.109 0.0234375 313.43 0 308 0Z" fill="white"/>
<path d="M308 9.72656C302.328 9.72656 297.727 14.3281 297.727 20C297.727 25.6719 302.328 30.2734 308 30.2734C313.672 30.2734 318.273 25.6719 318.273 20C318.273 14.3281 313.672 9.72656 308 9.72656ZM308 26.6641C304.32 26.6641 301.336 23.6797 301.336 20C301.336 16.3203 304.32 13.3359 308 13.3359C311.68 13.3359 314.664 16.3203 314.664 20C314.664 23.6797 311.68 26.6641 308 26.6641Z" fill="white"/>
<path d="M321.078 9.32026C321.078 10.6484 320 11.7187 318.68 11.7187C317.352 11.7187 316.281 10.6406 316.281 9.32026C316.281 7.99213 317.359 6.92181 318.68 6.92181C320 6.92181 321.078 7.99994 321.078 9.32026Z" fill="white"/>
<path d="M393.862 6.92598C391.312 5.75617 388.578 4.89431 385.72 4.40069C385.668 4.39116 385.616 4.41497 385.589 4.46259C385.237 5.08795 384.848 5.90378 384.575 6.54502C381.501 6.08474 378.442 6.08474 375.431 6.54502C375.158 5.88953 374.754 5.08795 374.401 4.46259C374.374 4.41656 374.322 4.39275 374.27 4.40069C371.413 4.89274 368.679 5.7546 366.128 6.92598C366.106 6.9355 366.087 6.95138 366.075 6.972C360.889 14.7193 359.468 22.2761 360.165 29.7393C360.168 29.7758 360.189 29.8107 360.217 29.8329C363.639 32.3455 366.953 33.8708 370.205 34.8819C370.258 34.8977 370.313 34.8787 370.346 34.8358C371.115 33.7851 371.801 32.6772 372.389 31.5122C372.424 31.4439 372.391 31.363 372.32 31.336C371.232 30.9233 370.196 30.4202 369.2 29.8488C369.121 29.8028 369.114 29.69 369.187 29.6361C369.397 29.4789 369.606 29.3154 369.807 29.1504C369.843 29.1202 369.893 29.1139 369.936 29.1329C376.482 32.1217 383.569 32.1217 390.038 29.1329C390.081 29.1123 390.131 29.1187 390.169 29.1488C390.369 29.3139 390.579 29.4789 390.79 29.6361C390.863 29.69 390.858 29.8028 390.779 29.8488C389.783 30.4313 388.747 30.9233 387.658 31.3344C387.587 31.3614 387.555 31.4439 387.59 31.5122C388.19 32.6756 388.876 33.7835 389.631 34.8343C389.663 34.8787 389.72 34.8977 389.772 34.8819C393.04 33.8708 396.354 32.3455 399.776 29.8329C399.806 29.8107 399.825 29.7774 399.828 29.7408C400.662 21.1126 398.431 13.6177 393.914 6.97358C393.903 6.95138 393.884 6.9355 393.862 6.92598ZM373.367 25.195C371.396 25.195 369.772 23.3856 369.772 21.1634C369.772 18.9413 371.364 17.1319 373.367 17.1319C375.385 17.1319 376.993 18.9572 376.961 21.1634C376.961 23.3856 375.369 25.195 373.367 25.195ZM386.658 25.195C384.687 25.195 383.063 23.3856 383.063 21.1634C383.063 18.9413 384.656 17.1319 386.658 17.1319C388.676 17.1319 390.284 18.9572 390.253 21.1634C390.253 23.3856 388.676 25.195 386.658 25.195Z" fill="white"/>
<defs>
<clipPath id="clip0_427_255">
<rect width="40" height="40" fill="white" transform="translate(72)"/>
</clipPath>
<clipPath id="clip1_427_255">
<rect width="40" height="40" fill="white" transform="translate(216)"/>
</clipPath>
</defs>
</svg>
